<?xml version="1.0" standalone="no"?>
<!DOCTYPE svg PUBLIC "-//W3C//DTD SVG 20010904//EN"
 "http://www.w3.org/TR/2001/REC-SVG-20010904/DTD/svg10.dtd">
<svg version="1.0" xmlns="http://www.w3.org/2000/svg"
 width="512.000000pt" height="512.000000pt" viewBox="0 0 512.000000 512.000000"
 preserveAspectRatio="xMidYMid meet">
<metadata>
Created by potrace 1.14, written by Peter Selinger 2001-2017
</metadata>
<g transform="translate(0.000000,512.000000) scale(0.100000,-0.100000)"
fill="#000000" stroke="none">
<path d="M21 5093 l-21 -26 0 -1571 c1 -1679 0 -1628 50 -1832 40 -160 116
-328 218 -480 63 -93 86 -121 180 -218 212 -220 499 -376 800 -435 24 -5 46
-12 50 -16 4 -3 7 -107 7 -229 0 -238 6 -270 49 -278 11 -2 560 -4 1219 -3
l1199 0 19 24 c17 21 19 42 19 256 l0 233 78 17 c485 107 889 436 1096 895 51
113 56 151 23 177 l-25 19 19 80 c23 96 36 177 38 247 1 20 6 27 20 27 11 0
29 12 40 26 l21 27 0 1519 0 1519 -25 24 -24 25 -2515 0 -2515 0 -20 -27z
m1539 -2078 l0 -235 -35 -45 c-135 -178 -16 -437 207 -450 l53 -3 31 -118 c52
-199 91 -277 190 -384 l51 -55 -14 -120 c-17 -152 -18 -157 -48 -194 -35 -41
-113 -68 -220 -76 -50 -4 -106 -9 -125 -11 -73 -7 -207 -5 -260 5 -293 52
-512 257 -580 544 -19 81 -21 117 -21 598 0 281 1 512 3 514 2 1 73 38 158 81
120 61 166 90 205 130 l50 51 178 2 177 2 0 -236z m2403 182 c42 -41 87 -70
210 -131 86 -44 158 -86 161 -95 9 -37 -2 -1019 -12 -1068 -52 -243 -218 -442
-444 -533 -125 -49 -202 -58 -403 -46 -210 13 -256 20 -302 48 -62 37 -73 68
-98 289 l-7 56 49 52 c95 104 160 231 194 380 6 25 13 54 15 64 2 9 6 27 9 38
6 28 1 26 66 32 127 11 224 101 248 231 14 74 -13 174 -59 224 -20 21 -22 54
-21 379 l1 132 170 0 170 1 53 -53z"/>
</g>
</svg>
